HIERARCHY
ROOT ROOT
{
	OFFSET 0.000000 56.020000 -5.659234
	CHANNELS 6 Xposition Yposition Zposition Xrotation Yrotation Zrotation 
	JOINT C_spine0001_bind_JNT
	{
		OFFSET 0.000000 1.618999 0.000000
		CHANNELS 3 Xrotation Yrotation Zrotation
		JOINT C_spine0002_bind_JNT
		{
			OFFSET 0.000000 4.942001 0.000001
			CHANNELS 3 Xrotation Yrotation Zrotation
			JOINT C_spine0003_bind_JNT
			{
				OFFSET 0.000000 4.942001 -0.000000
				CHANNELS 3 Xrotation Yrotation Zrotation
				JOINT C_neck0001_bind_JNT
				{
					OFFSET 0.000000 17.026009 -0.000000
					CHANNELS 3 Xrotation Yrotation Zrotation
					JOINT C_neck0002_bind_JNT
					{
						OFFSET 0.000000 3.249985 0.000000
						CHANNELS 3 Xrotation Yrotation Zrotation
						JOINT C_head_bind_JNT
						{
							OFFSET 0.000000 5.278008 0.000000
							CHANNELS 3 Xrotation Yrotation Zrotation
							End Site
							{
								OFFSET 0.000000 0.000000 0.000000
							}
						}
					}
				}
				JOINT L_clavicle_bind_JNT
				{
					OFFSET 4.590000 12.067001 0.834000
					CHANNELS 3 Xrotation Yrotation Zrotation
					JOINT L_armUpper0001_bind_JNT
					{
						OFFSET 7.812635 0.512001 -3.452945
						CHANNELS 3 Xrotation Yrotation Zrotation
						JOINT L_armLower0001_bind_JNT
						{
							OFFSET 15.265892 -6.552116 -0.058157
							CHANNELS 3 Xrotation Yrotation Zrotation
							JOINT L_hand0001_bind_JNT
							{
								OFFSET 14.747667 -6.369995 5.049225
								CHANNELS 3 Xrotation Yrotation Zrotation
								End Site
								{
									OFFSET 0.000000 0.000000 0.000000
								}
							}
						}
					}
				}
				JOINT R_clavicle_bind_JNT
				{
					OFFSET -4.590000 12.067001 0.834000
					CHANNELS 3 Xrotation Yrotation Zrotation
					JOINT R_armUpper0001_bind_JNT
					{
						OFFSET -7.812635 0.512001 -3.452945
						CHANNELS 3 Xrotation Yrotation Zrotation
						JOINT R_armLower0001_bind_JNT
						{
							OFFSET -15.265890 -6.552124 -0.058160
							CHANNELS 3 Xrotation Yrotation Zrotation
							JOINT R_hand0001_bind_JNT
							{
								OFFSET -14.746784 -6.369629 5.048937
								CHANNELS 3 Xrotation Yrotation Zrotation
								End Site
								{
									OFFSET 0.000000 0.000000 0.000000
								}
							}
						}
					}
				}
			}
		}
	}
	JOINT C_pelvis0001_bind_JNT
	{
		OFFSET -0.000000 0.000000 0.000000
		CHANNELS 3 Xrotation Yrotation Zrotation
		JOINT L_legUpper0001_bind_JNT
		{
			OFFSET 6.599999 -6.027000 0.539000
			CHANNELS 3 Xrotation Yrotation Zrotation
			JOINT L_legLower0001_bind_JNT
			{
				OFFSET -0.140713 -19.187443 0.040261
				CHANNELS 3 Xrotation Yrotation Zrotation
				JOINT L_foot0001_bind_JNT
				{
					OFFSET -0.132215 -18.028637 -1.138370
					CHANNELS 3 Xrotation Yrotation Zrotation
					JOINT L_foot0002_bind_JNT
					{
						OFFSET 0.007014 -4.693133 9.886524
						CHANNELS 3 Xrotation Yrotation Zrotation
						End Site
						{
							OFFSET 0.000000 0.000000 0.000000
						}
					}
				}
			}
		}
		JOINT R_legUpper0001_bind_JNT
		{
			OFFSET -6.599999 -6.027000 0.539000
			CHANNELS 3 Xrotation Yrotation Zrotation
			JOINT R_legLower0001_bind_JNT
			{
				OFFSET 0.140710 -19.187164 0.040550
				CHANNELS 3 Xrotation Yrotation Zrotation
				JOINT R_foot0001_bind_JNT
				{
					OFFSET 0.132215 -18.028633 -1.138362
					CHANNELS 3 Xrotation Yrotation Zrotation
					JOINT R_foot0002_bind_JNT
					{
						OFFSET -0.007014 -4.693128 9.886505
						CHANNELS 3 Xrotation Yrotation Zrotation
						End Site
						{
							OFFSET 0.000000 0.000000 0.000000
						}
					}
				}
			}
		}
	}
}
MOTION
Frames: 16
Frame Time: 0.033333
0.000000 48.677242 0.000000 0.041608 15.056748 -0.007235 6.682606 -17.191870 1.823855 -3.503313 0.491969 0.606244 5.768183 1.303060 2.482077 3.878529 1.082573 -1.369206 -0.847771 0.487729 0.409025 -29.390717 3.020103 -2.374215 7.270023 -1.663088 5.927802 -17.979996 -7.493593 -70.036201 -4.583127 14.402792 -3.284055 -0.421282 -19.141134 -20.753551 11.183577 1.937965 -7.839778 -14.829434 -5.855473 67.616600 7.771601 -26.620392 -13.403780 10.606412 27.556612 2.012904 3.228921 -16.550867 -0.914005 -2.276676 18.903912 5.453241 19.367523 1.632959 2.287794 -11.967240 -5.888678 -4.280684 -8.932027 -0.571374 -2.013614 -10.113420 -12.670942 1.661126 13.311915 0.280522 0.446688 -6.390229 -0.868936 -2.203363 -0.885755 -0.017711 0.148585
-0.026087 48.760048 1.024560 0.039231 13.934980 -0.042036 5.578371 -15.021327 1.606849 -3.067678 0.208211 1.219441 5.951685 1.934207 2.570499 3.245635 0.521763 -1.181407 -0.490059 0.133618 0.025424 -30.363031 2.087445 -2.254641 6.710691 -2.958401 6.063777 -16.978769 -7.212956 -69.716469 -5.716323 15.984628 -4.090407 0.705965 -18.408291 -20.723804 11.785379 1.614242 -7.986028 -16.769991 -5.421210 67.288902 6.180136 -26.676081 -14.232078 14.388516 28.195690 -0.414687 2.009050 -15.628107 -1.170847 -4.420731 20.870564 6.523280 22.555122 0.541602 2.996461 -10.254822 -7.004472 -3.433911 -11.613364 -0.470016 -2.560043 -6.777688 -12.241417 1.657017 11.377342 -0.474890 0.634226 -5.878907 -1.518327 -1.591398 -1.461696 0.324192 -0.293811
-0.221456 48.862148 1.383887 0.023422 13.215954 -0.041392 5.446005 -13.889729 1.644428 -3.121456 0.319379 1.477374 5.951749 1.683092 2.604225 2.844470 0.661299 -1.297500 -0.353585 0.098361 0.133799 -30.829262 2.534074 -2.203961 6.668308 -3.042104 6.439668 -16.555073 -6.291697 -70.420547 -5.809351 16.020479 -4.047905 0.755117 -18.281813 -20.577152 11.752538 1.541858 -7.973790 -17.838249 -4.605346 67.016472 7.267840 -26.576931 -14.228481 14.070388 27.669277 -0.022682 1.990947 -14.443459 -1.400256 -5.686691 21.523796 7.994813 25.559151 0.628223 3.418460 -9.639830 -6.525372 -3.802245 -14.237662 -0.237311 -3.476761 -5.327843 -11.482903 2.240924 9.913301 -1.203703 0.575293 -5.720302 -2.488341 -1.378667 -1.493853 -0.045219 -0.138251
-0.459799 48.877655 1.533393 0.028445 12.517824 -0.028227 5.365487 -12.215046 1.760059 -3.098534 0.295516 1.722081 5.951710 1.534851 2.833769 2.733974 0.842779 -1.502269 -0.482609 0.050032 0.151708 -30.833128 2.886469 -2.154916 6.632927 -3.221363 6.554873 -15.898809 -5.360746 -70.530319 -5.691988 15.654762 -4.166163 0.866173 -18.282104 -20.518621 11.563736 1.153544 -7.947785 -19.178581 -2.810512 66.854408 7.683663 -25.803738 -14.208237 14.150524 26.965687 0.557710 1.774815 -12.762429 -1.519251 -7.928381 21.692137 9.414509 28.559856 0.081063 3.890756 -7.883433 -6.871435 -3.823977 -17.128630 0.135136 -3.816950 -4.352578 -11.471282 2.527013 9.143761 -2.120054 0.676435 -5.733396 -2.688144 -1.408131 -1.451883 -0.156089 -0.248026
-0.730722 48.887451 1.756768 0.022684 12.469648 -0.026064 5.179997 -11.308640 1.908723 -2.917652 0.295088 1.920160 6.013049 1.549618 2.997404 2.540128 0.861773 -1.741926 -0.403137 0.107508 0.272721 -30.744841 3.251280 -2.221197 6.487790 -3.213616 6.458063 -15.457558 -4.890283 -70.489067 -5.879550 15.598582 -4.293392 0.797088 -18.387888 -20.246426 11.487876 0.629241 -7.828560 -20.691847 -0.843652 66.598999 8.123036 -25.189556 -14.234781 14.113028 26.642357 0.732272 1.684831 -12.017453 -1.472268 -10.582466 22.174997 10.481775 32.144184 -0.120501 4.701607 -6.260006 -7.225392 -4.025593 -19.969717 0.099929 -3.807458 -3.133026 -11.365014 2.852889 7.929778 -2.542713 0.845997 -5.588508 -3.100862 -1.467317 -1.527338 -0.237740 -0.441218
-0.969529 48.931122 2.016997 0.030690 12.568015 -0.028709 5.037143 -10.583797 2.271099 -3.025745 0.554093 1.925814 6.140509 1.402274 3.084433 2.690177 1.130622 -1.732120 -0.495114 -0.021611 0.194040 -30.689562 3.290907 -2.312513 6.525179 -3.319020 6.526530 -14.997519 -4.221464 -70.295914 -5.666019 15.193065 -4.701419 0.639892 -18.311316 -20.339956 11.399790 0.107608 -7.580998 -22.317558 1.253962 66.368027 8.853745 -24.332897 -13.891815 14.398230 25.848440 0.776402 1.614803 -11.504374 -1.528227 -13.048196 22.722378 11.511456 35.116341 -0.334388 5.143118 -4.499358 -7.132440 -3.673328 -21.910597 0.123950 -3.852559 -2.133563 -11.436684 3.048317 7.261714 -2.980375 1.253378 -5.698355 -3.224963 -1.713905 -1.560128 -0.210949 -0.423861
-1.213289 48.969425 2.133852 0.022895 12.643288 -0.022635 4.903830 -9.577830 2.558242 -2.861545 0.539933 2.071543 6.212756 1.497236 3.213195 2.555960 0.960147 -1.777383 -0.512406 -0.095922 0.254724 -30.839945 3.627001 -2.178797 6.537894 -3.464918 6.556050 -14.754667 -3.894269 -70.301300 -6.013131 14.870269 -4.980102 0.735381 -18.178234 -20.199852 11.341748 -0.533580 -7.182956 -23.847183 3.302627 65.900803 9.222756 -23.452374 -13.910863 14.345096 25.535402 0.822866 1.496792 -10.672264 -1.252999 -15.475314 23.177027 11.576756 37.946125 -0.335407 5.673385 -2.533150 -7.209829 -3.113285 -23.312210 -0.223694 -3.366614 -1.481102 -11.906897 3.070913 6.653945 -3.180869 1.291974 -5.505694 -3.107323 -1.848808 -1.700688 -0.317687 -0.528961
-1.345125 48.948929 2.221878 0.025179 12.999591 -0.025106 4.864989 -9.077917 2.890015 -2.788068 0.698180 2.201972 6.307359 1.399075 3.357140 2.524586 1.191288 -1.739419 -0.540124 -0.072317 0.208250 -30.939310 3.642261 -2.221464 6.629091 -3.446802 6.710778 -14.515100 -3.384572 -70.347061 -6.118511 14.538259 -5.297662 0.753173 -18.232763 -20.043531 11.277232 -0.956130 -6.834698 -25.284489 5.141706 65.445930 9.264762 -22.721245 -14.174578 14.321104 25.224041 0.522412 1.681522 -10.409642 -1.202700 -18.147364 23.671253 12.285797 40.458096 -0.259526 5.898429 -1.301414 -7.080764 -2.853191 -23.290087 -0.530590 -3.015591 -1.217162 -11.996861 3.093238 6.120641 -3.408414 1.459491 -5.503573 -2.941358 -1.903167 -1.652441 -0.345086 -0.538661
-1.427322 48.978371 2.320132 0.025291 13.146272 -0.028982 4.781841 -8.153371 3.263232 -2.652734 0.689766 2.253470 6.487250 1.340716 3.417174 2.306478 1.298877 -1.653608 -0.484140 -0.146944 0.242211 -31.098604 3.955001 -2.227726 6.483379 -3.522697 6.972943 -14.087881 -2.821344 -70.328926 -6.171705 14.303904 -5.690928 0.727205 -17.946297 -19.883965 10.985625 -1.285682 -6.506987 -26.455645 6.567611 64.961014 9.091997 -21.881834 -14.358750 14.285597 25.199835 0.159387 1.636605 -9.672310 -1.030364 -20.053581 24.001883 12.362912 42.014641 0.111231 5.807019 -0.438033 -6.812106 -2.908662 -22.435045 -0.916105 -2.441942 -0.954885 -12.351426 2.825625 5.611709 -3.521726 1.512663 -5.216538 -2.896524 -1.872148 -1.692496 -0.317204 -0.558610
-1.464179 48.943382 2.393284 0.024442 13.396084 -0.021678 4.929913 -7.488063 3.581599 -2.646753 0.775162 2.444593 6.512738 1.308512 3.524693 2.327512 1.330350 -1.745935 -0.592805 -0.110214 0.244167 -31.354490 4.072855 -2.312412 6.555092 -3.514669 7.176215 -13.855621 -1.980086 -70.443741 -6.046189 14.459953 -5.777235 0.630630 -18.021305 -19.641823 10.981169 -1.596906 -6.368277 -27.703739 7.784123 64.712891 8.834350 -21.287228 -14.722177 14.521170 25.302410 -0.039647 1.829350 -9.221953 -0.864249 -21.237259 24.431177 12.267743 42.297401 0.432837 5.364408 -0.714824 -6.480653 -2.517792 -20.165224 -1.045478 -2.558453 -1.039887 -12.484378 2.700309 5.319348 -3.772282 1.405600 -5.019160 -2.659207 -1.825936 -1.739968 -0.394728 -0.612830
-1.439859 48.937901 2.443951 0.022923 13.290260 -0.025288 5.286842 -6.287074 4.132030 -2.560633 0.743255 2.487417 6.605613 1.264873 3.628051 1.875339 1.315265 -1.682390 -0.587165 -0.109646 0.233935 -31.666248 4.160890 -2.330297 6.284844 -3.537598 7.324911 -13.353319 -1.351677 -70.411682 -6.133868 14.520976 -5.897357 0.786298 -18.042532 -19.661777 10.652063 -1.795849 -6.217576 -28.741360 8.833222 64.336632 8.317356 -20.882299 -15.136936 14.466526 25.484051 -0.047399 2.310076 -8.118741 -0.275882 -21.775032 24.873760 11.271750 40.559216 0.882786 4.359007 -1.452814 -6.354468 -2.194527 -16.701756 -1.177856 -2.370774 -1.435335 -12.800687 2.031686 5.197430 -4.084446 1.573870 -5.168548 -2.601594 -1.938395 -1.607167 -0.589192 -0.411478
-1.314356 48.986969 2.592258 0.023513 13.426795 -0.025074 5.717000 -5.633730 4.512562 -2.549571 0.809766 2.641214 6.615271 1.151332 3.730219 1.751281 1.416227 -1.786705 -0.551523 -0.061868 0.128455 -31.976336 4.196452 -2.272539 6.261026 -3.516279 7.164538 -13.118991 -0.865840 -70.435890 -6.147093 14.766129 -5.666469 0.837675 -17.939077 -19.699965 10.562668 -1.813459 -6.238724 -29.499660 9.683142 64.172020 8.154272 -20.516218 -15.409789 14.267000 25.591057 0.133124 2.721552 -7.620322 0.195211 -22.321287 25.682508 10.247944 38.145233 0.933032 3.567642 -3.128831 -6.205476 -1.846017 -12.520642 -1.130617 -2.071782 -1.535142 -12.723200 1.511769 4.705878 -4.542698 1.445539 -4.963927 -2.906689 -1.722396 -1.700774 -0.406398 -0.293455
-1.149083 49.091427 2.865106 0.022976 13.264741 -0.026807 6.096123 -4.756724 4.799642 -2.344681 0.719621 2.898484 6.723507 1.079585 3.771347 1.381241 1.463108 -1.831577 -0.501660 -0.105042 0.103831 -32.659828 4.460170 -2.218204 5.895534 -3.497375 6.922899 -12.342667 -0.551570 -70.305420 -6.088761 14.989373 -5.576639 0.829761 -17.586054 -19.878927 10.233567 -1.843909 -6.039403 -30.315351 10.570549 63.931004 7.869768 -20.301222 -15.695354 14.098706 25.487244 0.040085 3.312380 -6.841470 0.667086 -22.838795 26.439398 9.197628 34.584793 1.046927 2.419411 -4.583220 -6.070278 -1.665963 -8.121950 -1.377810 -1.356517 -1.672713 -12.814805 0.849059 4.379944 -4.884068 1.534827 -5.146801 -3.130702 -1.462397 -1.733765 -0.499717 -0.233656
-0.970946 49.152271 3.258861 0.022057 13.268833 -0.021353 6.493527 -4.197342 5.023834 -2.352713 0.715538 3.042405 6.712361 1.108742 3.820344 1.333065 1.441588 -1.963877 -0.396838 -0.098171 0.105211 -32.893867 4.431020 -2.399389 5.789043 -3.795347 6.558299 -11.855674 -0.126267 -70.156517 -5.870666 15.689219 -5.407856 0.840132 -17.279352 -19.834181 10.255527 -1.750375 -5.800849 -30.929283 11.032264 63.525173 7.595265 -20.155752 -15.698453 14.028035 25.643862 -0.279088 3.458751 -6.354819 0.953134 -23.123594 26.794519 8.290926 31.470043 1.173417 1.583384 -5.103724 -5.984495 -1.645159 -5.089624 -1.526915 -0.826726 -1.420166 -12.889756 0.440152 4.318332 -5.295031 1.411846 -5.426135 -3.357434 -1.293823 -1.797220 -0.516291 -0.078940
-0.699277 49.114563 3.783128 0.030634 13.326027 -0.034487 6.768423 -3.944874 5.208684 -2.152194 0.824037 3.117111 6.720012 1.092715 3.924780 1.212159 1.531068 -1.918380 -0.469478 0.018470 0.016632 -33.055653 4.303720 -2.116054 5.534073 -3.923728 6.264075 -10.607372 0.511733 -69.740891 -5.427509 16.122074 -5.850918 1.093862 -17.134394 -19.809498 10.289758 -1.763522 -5.610962 -31.238100 11.190241 63.339550 7.464043 -19.598482 -15.619393 14.364399 25.564568 -0.538998 3.796897 -6.182087 1.090312 -23.007000 27.148397 7.389686 27.551819 0.983106 0.532152 -4.741421 -6.204353 -0.839318 -2.999592 -1.481722 -0.651441 -1.364254 -13.211899 0.090718 4.874160 -5.367483 1.308107 -6.328300 -3.504411 -1.047751 -1.932289 -0.599987 0.083321
-0.389213 49.084518 4.490686 0.028299 13.198285 -0.032920 7.164570 -3.605970 5.319740 -2.288395 0.850045 3.180050 6.687804 1.194271 3.918513 1.269624 1.506368 -1.823563 -0.518164 0.004520 -0.061994 -33.165722 4.306650 -1.970196 5.347621 -4.173605 6.068708 -9.210987 1.269724 -69.314682 -5.288867 16.523090 -6.322648 1.218834 -16.912212 -19.724724 10.270319 -1.699404 -5.576226 -30.897062 11.109921 63.172894 7.661523 -19.438919 -15.485726 14.345744 25.621098 -0.498800 3.912541 -6.082570 1.096512 -22.542553 27.500601 6.525003 24.956627 0.655225 -0.115319 -3.941739 -6.927639 0.235359 -2.520133 -1.586285 -0.673579 -1.162482 -12.875263 -0.104732 5.585889 -5.878927 1.228448 -7.015629 -3.926888 -0.715626 -2.198448 -0.537197 0.106038
